<svg xmlns="http://www.w3.org/2000/svg" viewBox="0 0 512 512">
  <defs>
    <linearGradient id="grad" x1="0%" y1="0%" x2="100%" y2="100%">
      <stop offset="0%" stop-color="#3b82f6"/>
      <stop offset="45%" stop-color="#8b5cf6"/>
      <stop offset="100%" stop-color="#f97316"/>
    </linearGradient>
  </defs>
  <!-- Background -->
  <rect width="512" height="512" rx="102" fill="#0f172a"/>
  
  <!-- Lettre "i" -->
  <circle cx="100" cy="168" r="30" fill="url(#grad)"/>
  <rect x="70" y="215" width="60" height="155" rx="12" fill="url(#grad)"/>
  
  <!-- Lettre "z" - forme arrondie moderne -->
  <path d="
    M155 215 
    L295 215 
    Q310 215 310 230
    L310 245
    Q310 255 300 260
    L200 335
    L295 335
    Q310 335 310 350
    L310 355
    Q310 370 295 370
    L155 370
    Q140 370 140 355
    L140 340
    Q140 330 150 325
    L250 250
    L155 250
    Q140 250 140 235
    L140 230
    Q140 215 155 215
    Z" fill="url(#grad)"/>
  
  <!-- Lettre "y" - moderne -->
  <path d="
    M325 215
    L325 305
    Q325 320 340 320
    L340 320
    Q355 320 365 305
    L400 215
    L400 215
    L460 215
    L400 330
    L400 420
    L340 420
    L340 330
    L280 215
    Z" fill="url(#grad)"/>
</svg>
